<svg xmlns="http://www.w3.org/2000/svg" viewBox="0 0 541.96 122.91"><title>darvigdsd_1</title><g id="Слой_2" data-name="Слой 2"><g id="Слой_1-2" data-name="Слой 1"><path d="M398.94,17.08a9.77,9.77,0,0,1-2.88-7.2,9.38,9.38,0,0,1,2.88-7.15,10.58,10.58,0,0,1,14.19,0A9.38,9.38,0,0,1,416,9.88a9.77,9.77,0,0,1-2.88,7.2,10.18,10.18,0,0,1-14.19,0Z" style="fill:#000d1f"/><path d="M524.89,17.08A9.77,9.77,0,0,1,522,9.88a9.38,9.38,0,0,1,2.88-7.15,10.58,10.58,0,0,1,14.19,0A9.38,9.38,0,0,1,542,9.88a9.77,9.77,0,0,1-2.88,7.2,10.18,10.18,0,0,1-14.19,0Z" style="fill:#000d1f"/><path d="M0,45.35A15.23,15.23,0,0,1,15.23,30.12H32.71A46,46,0,0,1,53.44,34.6a33.49,33.49,0,0,1,14,12.6,35.43,35.43,0,0,1,5,18.93,35.43,35.43,0,0,1-5,18.93,33.49,33.49,0,0,1-14,12.6,46,46,0,0,1-20.73,4.47H15.23A15.22,15.22,0,0,1,0,86.91Zm31.89,43.1q10.8,0,17.23-6t6.43-16.3q0-10.29-6.43-16.31t-17.23-6H19.64a3,3,0,0,0-3,3V73.23A15.21,15.21,0,0,0,31.89,88.45Z" style="fill:#000d1f"/><path d="M125.91,52.09q6.9,6.12,6.89,18.46V95.94a6.19,6.19,0,0,1-6.19,6.19H124a6.19,6.19,0,0,1-6.19-6.19h0a.2.2,0,0,0-.37-.11q-4.65,7.13-16.5,7.13a26.17,26.17,0,0,1-11.06-2.16,16.39,16.39,0,0,1-7.15-6,15.51,15.51,0,0,1-2.47-8.64,14.4,14.4,0,0,1,5.81-12.14q5.81-4.42,18-4.42h6.41a4.65,4.65,0,0,0,3.22-8l-.06-.06q-3.19-2.82-9.57-2.83a28.06,28.06,0,0,0-8.69,1.39Q94.1,60.52,93,61a6,6,0,0,1-7.78-2.7l-.26-.5a6,6,0,0,1,2.94-8.22,40.36,40.36,0,0,1,5.28-1.85,48.82,48.82,0,0,1,13-1.74Q119,46,125.91,52.09ZM112.23,90.25a10.22,10.22,0,0,0,4.06-4.49,4.74,4.74,0,0,0,.47-2.06h0A4.71,4.71,0,0,0,112,79h-6.29q-9.87,0-9.88,6.48a5.78,5.78,0,0,0,2.42,4.89,10.89,10.89,0,0,0,6.64,1.8A14,14,0,0,0,112.23,90.25Z" style="fill:#000d1f"/><path d="M170.4,48a26.24,26.24,0,0,1,7.35-1.84,3.53,3.53,0,0,1,3.92,3.51v7.36a3.54,3.54,0,0,1-3.58,3.52h0q-6.9,0-10.8,3.86T163.36,76V94.11a8,8,0,0,1-8,8h0a8,8,0,0,1-8-8V54.81a8,8,0,0,1,8-8h5.2a2.11,2.11,0,0,1,2.11,2.11h0a2.1,2.1,0,0,0,3.4,1.65A19.6,19.6,0,0,1,170.4,48Z" style="fill:#000d1f"/><path d="M244,56.66,226.6,97.79a7.1,7.1,0,0,1-6.54,4.34h-7.13a7.1,7.1,0,0,1-6.55-4.35L189.1,56.65a7.1,7.1,0,0,1,6.55-9.86h1.09a7.1,7.1,0,0,1,6.58,4.43l7.06,17.32a7.11,7.11,0,0,0,13.13.08l7.35-17.48a7.1,7.1,0,0,1,6.55-4.35h0A7.11,7.11,0,0,1,244,56.66Z" style="fill:#000d1f"/><path d="M255.53,36.5a8.34,8.34,0,0,1-2.78-6.38,8.34,8.34,0,0,1,2.78-6.37,10.15,10.15,0,0,1,7.2-2.58,11.19,11.19,0,0,1,5.78,1.43,8.81,8.81,0,0,1,3.72,10.29,8.45,8.45,0,0,1-2.3,3.56,11.29,11.29,0,0,1-14.4,0Zm7.2,10.29h0a8,8,0,0,1,8,8v39.3a8,8,0,0,1-8,8h0a8,8,0,0,1-8-8V54.81A8,8,0,0,1,262.73,46.79Z" style="fill:#000d1f"/><path d="M336.23,46.79a6.53,6.53,0,0,1,6.53,6.53V92.88q0,15.21-7.92,22.63t-23.15,7.4a58,58,0,0,1-15.22-2,40.78,40.78,0,0,1-6-2.11,6.49,6.49,0,0,1-2.92-9.07h0a6.55,6.55,0,0,1,8.42-2.86,34.08,34.08,0,0,0,3.75,1.44,35.25,35.25,0,0,0,10.7,1.69q8.32,0,12.29-3.75t4-11.37V92.57q-6.27,6.89-17.49,6.89a29.31,29.31,0,0,1-13.93-3.34,25.41,25.41,0,0,1-10-9.42,26.3,26.3,0,0,1-3.71-14,26.32,26.32,0,0,1,3.71-14,25.45,25.45,0,0,1,10-9.41A29.31,29.31,0,0,1,309.22,46q12,0,18.32,7.92h0a7.09,7.09,0,0,1,7.09-7.1ZM322.85,82.54a12.77,12.77,0,0,0,4.07-9.83,12.75,12.75,0,0,0-4.07-9.82,14.76,14.76,0,0,0-10.44-3.76,15,15,0,0,0-10.49,3.76,12.68,12.68,0,0,0-4.11,9.82,12.7,12.7,0,0,0,4.11,9.83,15,15,0,0,0,10.49,3.75A14.76,14.76,0,0,0,322.85,82.54Z" style="fill:#000d1f"/><path d="M414.05,32.18V95.76a6.38,6.38,0,0,1-6.38,6.37H405.1a6.38,6.38,0,0,1-6.38-6.37h0q-6,7.2-17.28,7.2a28.79,28.79,0,0,1-14.15-3.5,25.07,25.07,0,0,1-9.92-10,30.4,30.4,0,0,1-3.6-15,30.43,30.43,0,0,1,3.6-15,25.13,25.13,0,0,1,9.92-10A28.79,28.79,0,0,1,381.44,46a26,26,0,0,1,8.29,1.24A6.34,6.34,0,0,0,398,41.13v-9a6.38,6.38,0,0,1,6.38-6.38h3.29A6.38,6.38,0,0,1,414.05,32.18ZM394.3,85.62q4-4.16,4-11.16t-4-11.16a14.4,14.4,0,0,0-20.27,0q-4,4.17-4,11.16t4,11.16a14.4,14.4,0,0,0,20.27,0Z" style="fill:#000d1f"/><path d="M434,101.26c-1.69-.44-3.26-.92-4.69-1.44A6,6,0,0,1,426,91.7l.31-.67a5.94,5.94,0,0,1,7.55-3,39.44,39.44,0,0,0,4,1.35,37.71,37.71,0,0,0,10.29,1.49q10.18,0,10.18-5c0-1.58-.92-2.71-2.78-3.4A41.39,41.39,0,0,0,447,80.63a81.87,81.87,0,0,1-11.22-2.36,17.39,17.39,0,0,1-7.66-4.73q-3.24-3.41-3.24-9.67a15.16,15.16,0,0,1,3-9.31,19.61,19.61,0,0,1,8.85-6.33A37.73,37.73,0,0,1,450.46,46a54.41,54.41,0,0,1,11.68,1.28c1.18.26,2.31.56,3.37.88a6,6,0,0,1,3.64,8.24l-.24.52a6,6,0,0,1-7.52,3,32.73,32.73,0,0,0-10.93-1.82q-5.15,0-7.71,1.44c-1.72,1-2.57,2.19-2.57,3.7a3.68,3.68,0,0,0,2.77,3.6,48.4,48.4,0,0,0,8.85,2,95,95,0,0,1,11.11,2.42,16.77,16.77,0,0,1,7.51,4.68q3.19,3.41,3.19,9.47a14.58,14.58,0,0,1-3.09,9.15,19.63,19.63,0,0,1-9,6.23,40.18,40.18,0,0,1-14,2.21A53.9,53.9,0,0,1,434,101.26Z" style="fill:#000d1f"/><path d="M539.86,32.18V95.76a6.38,6.38,0,0,1-6.38,6.37h-3.12a5.83,5.83,0,0,1-5.83-5.83h0a.2.2,0,0,0-.36-.13q-5.94,6.8-16.92,6.79a28.79,28.79,0,0,1-14.15-3.5,25.07,25.07,0,0,1-9.92-10,30.29,30.29,0,0,1-3.6-15,30.32,30.32,0,0,1,3.6-15,25.13,25.13,0,0,1,9.92-10A28.79,28.79,0,0,1,507.25,46a25.9,25.9,0,0,1,8.28,1.24,6.35,6.35,0,0,0,8.28-6.08v-9a6.38,6.38,0,0,1,6.38-6.38h3.29A6.38,6.38,0,0,1,539.86,32.18ZM520.11,85.62q4-4.16,4-11.16t-4-11.16a14.4,14.4,0,0,0-20.27,0q-4,4.17-4,11.16t4,11.16a14.4,14.4,0,0,0,20.27,0Z" style="fill:#000d1f"/></g></g></svg>