<svg width="465" height="96" viewBox="0 0 465 96" fill="none" xmlns="http://www.w3.org/2000/svg">
<rect width="97" height="96" rx="35" fill="#000D1F"/>
<path d="M20 31.7786C20 28.6565 21.2435 25.6624 23.4569 23.4548C25.6704 21.2472 28.6724 20.007 31.8027 20.007H45.3491C50.9014 19.8974 56.4026 21.0831 61.4141 23.4697C65.8903 25.6139 69.6557 28.9939 72.2636 33.2085C74.9076 37.6258 76.2505 42.6966 76.1385 47.8399C76.2505 52.9833 74.9076 58.054 72.2636 62.4714C69.6557 66.686 65.8903 70.0659 61.4141 72.2102C56.402 74.594 50.9008 75.7771 45.3491 75.6652H31.8027C30.2531 75.6662 28.7185 75.3626 27.2866 74.7719C25.8547 74.1812 24.5535 73.3148 23.4574 72.2223C22.3613 71.1299 21.4918 69.8327 20.8986 68.4049C20.3053 66.9771 20 65.4468 20 63.9013V31.7786ZM44.7136 65.0916C50.2934 65.0916 54.7443 63.5457 58.0663 60.454C61.3883 57.3623 63.0493 53.1628 63.0493 47.8554C63.0493 42.5531 61.3883 38.351 58.0663 35.249C54.7443 32.147 50.2934 30.6012 44.7136 30.6115H35.2203C34.6037 30.6115 34.0124 30.8558 33.5764 31.2906C33.1404 31.7255 32.8954 32.3153 32.8954 32.9302V53.3277C32.8944 54.8748 33.1995 56.4069 33.7934 57.8361C34.3872 59.2653 35.2581 60.5636 36.356 61.6565C37.454 62.7494 38.7574 63.6154 40.1915 64.2048C41.6257 64.7943 43.1625 65.0956 44.7136 65.0916V65.0916Z" fill="white"/>
<path d="M353.975 13.2028C353.242 12.4762 352.665 11.6076 352.281 10.6506C351.898 9.69347 351.714 8.66814 351.743 7.63772C351.701 6.61144 351.878 5.58803 352.263 4.63529C352.648 3.68256 353.231 2.82223 353.975 2.11132C355.482 0.752391 357.441 0 359.473 0C361.505 0 363.464 0.752391 364.971 2.11132C365.713 2.82292 366.295 3.68355 366.679 4.63625C367.062 5.58896 367.238 6.61201 367.196 7.63772C367.224 8.66814 367.041 9.69347 366.657 10.6506C366.273 11.6076 365.697 12.4762 364.964 13.2028C363.491 14.6301 361.519 15.4286 359.465 15.4286C357.412 15.4286 355.439 14.6301 353.967 13.2028H353.975Z" fill="#000D1F"/>
<path d="M451.582 13.2028C450.847 12.4769 450.269 11.6086 449.884 10.6515C449.499 9.69436 449.314 8.66869 449.342 7.63772C449.3 6.61144 449.478 5.58803 449.862 4.63529C450.247 3.68256 450.831 2.82223 451.574 2.11132C453.081 0.752391 455.04 0 457.072 0C459.104 0 461.063 0.752391 462.571 2.11132C463.321 2.8188 463.911 3.67758 464.303 4.63049C464.694 5.5834 464.878 6.60856 464.841 7.63772C464.87 8.66814 464.686 9.69347 464.303 10.6506C463.919 11.6076 463.342 12.4762 462.609 13.2028C461.137 14.6301 459.164 15.4286 457.111 15.4286C455.058 15.4286 453.085 14.6301 451.613 13.2028H451.582Z" fill="#000D1F"/>
<path d="M142.386 40.2628C145.951 43.4163 147.731 48.1724 147.726 54.531V74.1555C147.726 75.4244 147.22 76.6413 146.321 77.5386C145.421 78.4358 144.201 78.9399 142.929 78.9399H140.906C139.634 78.9399 138.413 78.4358 137.514 77.5386C136.614 76.6413 136.109 75.4244 136.109 74.1555V74.1555C136.11 74.1216 136.099 74.0883 136.079 74.0609C136.059 74.0334 136.031 74.0133 135.998 74.0037C135.965 73.994 135.931 73.9953 135.899 74.0074C135.867 74.0194 135.84 74.0416 135.822 74.0705C133.42 77.7444 129.157 79.5814 123.035 79.5814C120.09 79.6523 117.166 79.0826 114.464 77.9119C112.205 76.9343 110.28 75.3232 108.923 73.2744C107.638 71.2855 106.972 68.9619 107.009 66.5963C106.936 64.7848 107.309 62.9831 108.093 61.3477C108.878 59.7124 110.051 58.293 111.511 57.213C114.513 54.9355 119.163 53.7967 125.461 53.7967H130.428C131.147 53.7959 131.848 53.5811 132.443 53.1799C133.038 52.7786 133.499 52.2091 133.767 51.5446C134.036 50.8801 134.099 50.1507 133.948 49.4503C133.798 48.7498 133.441 48.1101 132.924 47.6133L132.877 47.5669C131.229 46.1138 128.757 45.3847 125.461 45.3795C123.173 45.3822 120.901 45.7447 118.726 46.4539C118.065 46.6703 117.45 46.9022 116.882 47.1495C115.8 47.6345 114.573 47.6886 113.452 47.3006C112.331 46.9127 111.401 46.112 110.853 45.0627L110.651 44.6762C110.364 44.1132 110.194 43.4975 110.154 42.8669C110.114 42.2364 110.203 41.6042 110.416 41.0092C110.63 40.4143 110.963 39.8691 111.395 39.4071C111.827 38.9452 112.349 38.5762 112.93 38.3228C114.259 37.7523 115.626 37.2745 117.021 36.8929C120.304 35.9946 123.692 35.5423 127.096 35.548C133.719 35.5531 138.816 37.1247 142.386 40.2628ZM131.785 69.7576C133.161 68.9442 134.258 67.7343 134.931 66.2871C135.171 65.7905 135.295 65.2462 135.295 64.6949V64.6949C135.294 64.2142 135.198 63.7385 135.011 63.2952C134.825 62.8518 134.553 62.4497 134.21 62.112C133.867 61.7742 133.46 61.5076 133.013 61.3274C132.566 61.1472 132.088 61.0571 131.606 61.0622H126.732C121.632 61.0622 119.08 62.7317 119.075 66.0707C119.051 66.806 119.21 67.5357 119.538 68.1951C119.865 68.8545 120.35 69.423 120.95 69.8503C122.47 70.8564 124.275 71.3446 126.096 71.2416C128.093 71.2785 130.062 70.765 131.785 69.7576V69.7576Z" fill="#000D1F"/>
<path d="M176.864 37.1015C178.684 36.3551 180.603 35.8761 182.56 35.6794C182.943 35.637 183.33 35.6755 183.696 35.7925C184.063 35.9095 184.401 36.1024 184.687 36.3584C184.974 36.6145 185.203 36.928 185.36 37.2785C185.517 37.6289 185.598 38.0085 185.598 38.3923V44.081C185.596 44.4417 185.523 44.7983 185.382 45.1305C185.241 45.4628 185.036 45.7639 184.778 46.0168C184.52 46.2696 184.215 46.4691 183.879 46.6038C183.544 46.7386 183.185 46.8058 182.824 46.8017V46.8017C179.259 46.8017 176.469 47.7962 174.454 49.7852C172.439 51.7742 171.424 54.7603 171.408 58.7434V72.741C171.408 74.381 170.755 75.9537 169.593 77.1133C168.43 78.273 166.853 78.9244 165.209 78.9244C163.564 78.9244 161.988 78.273 160.825 77.1133C159.662 75.9537 159.009 74.381 159.009 72.741V42.3651C159.009 40.7252 159.662 39.1524 160.825 37.9928C161.988 36.8332 163.564 36.1818 165.209 36.1818H169.239C169.672 36.1818 170.088 36.3536 170.395 36.6594C170.701 36.9653 170.874 37.3801 170.874 37.8126V37.8126C170.874 38.1174 170.96 38.4161 171.122 38.6745C171.284 38.9328 171.516 39.1404 171.791 39.2735C172.066 39.4066 172.373 39.4597 172.676 39.4269C172.98 39.3941 173.269 39.2766 173.509 39.088C174.537 38.2847 175.665 37.617 176.864 37.1015V37.1015Z" fill="#000D1F"/>
<path d="M233.902 43.7951L220.417 75.5854C219.997 76.5796 219.292 77.428 218.39 78.0247C217.489 78.6213 216.431 78.9397 215.349 78.9399H209.823C208.739 78.9405 207.679 78.6218 206.776 78.0236C205.873 77.4254 205.167 76.5745 204.747 75.5777L191.356 43.7874C191.003 42.9526 190.862 42.0435 190.947 41.1414C191.032 40.2393 191.34 39.3722 191.842 38.6175C192.345 37.8628 193.027 37.244 193.828 36.8163C194.629 36.3885 195.524 36.1653 196.432 36.1663H197.277C198.372 36.1662 199.442 36.4919 200.351 37.1019C201.259 37.7119 201.964 38.5783 202.376 39.5904L207.847 52.9774C208.259 53.9824 208.96 54.8432 209.862 55.4512C210.764 56.0593 211.826 56.3873 212.914 56.3939C214.003 56.4005 215.069 56.0854 215.978 55.4884C216.887 54.8914 217.599 54.0391 218.023 53.0393L223.719 39.5286C224.138 38.5317 224.844 37.6808 225.747 37.0826C226.65 36.4845 227.71 36.1657 228.795 36.1663V36.1663C229.706 36.1615 230.604 36.3823 231.409 36.8088C232.214 37.2353 232.9 37.8542 233.406 38.6102C233.912 39.3662 234.222 40.2355 234.309 41.1404C234.395 42.0453 234.255 42.9574 233.902 43.7951V43.7951Z" fill="#000D1F"/>
<path d="M242.837 28.2129C242.143 27.5942 241.591 26.8332 241.219 25.9821C240.848 25.1311 240.664 24.2099 240.683 23.2817C240.666 22.3548 240.849 21.4351 241.221 20.5854C241.593 19.7358 242.144 18.9761 242.837 18.3582C244.365 16.9932 246.367 16.2777 248.417 16.364C249.982 16.3222 251.53 16.7042 252.896 17.4693C254.205 18.2768 255.202 19.5018 255.725 20.9455C256.249 22.3892 256.268 23.967 255.779 25.4227C255.429 26.476 254.815 27.423 253.996 28.1743C252.427 29.4701 250.454 30.1791 248.417 30.1791C246.38 30.1791 244.406 29.4701 242.837 28.1743V28.2129ZM248.417 36.1663C250.061 36.1663 251.638 36.8178 252.801 37.9774C253.963 39.137 254.616 40.7098 254.616 42.3497V72.7256C254.616 74.3655 253.963 75.9383 252.801 77.0979C251.638 78.2575 250.061 78.909 248.417 78.909C246.772 78.909 245.196 78.2575 244.033 77.0979C242.87 75.9383 242.217 74.3655 242.217 72.7256V42.3652C242.215 41.5518 242.374 40.7461 242.684 39.9941C242.995 39.2421 243.451 38.5587 244.027 37.9829C244.603 37.407 245.287 36.9502 246.041 36.6385C246.794 36.3268 247.601 36.1663 248.417 36.1663V36.1663Z" fill="#000D1F"/>
<path d="M305.377 36.1663C306.719 36.1663 308.006 36.6981 308.955 37.6446C309.904 38.5911 310.437 39.8749 310.437 41.2135V71.7904C310.437 79.6278 308.391 85.4582 304.299 89.2816C300.208 93.105 294.227 95.0116 286.359 95.0012C282.376 95.0095 278.41 94.4896 274.564 93.4554C272.974 93.0333 271.419 92.4881 269.914 91.8245C269.285 91.5331 268.724 91.1151 268.265 90.5967C267.805 90.0784 267.459 89.471 267.246 88.8127C267.034 88.1543 266.96 87.4593 267.03 86.7712C267.099 86.0831 267.311 85.4168 267.651 84.8141C268.261 83.6944 269.271 82.8449 270.48 82.4352C271.69 82.0255 273.01 82.0856 274.177 82.6036C275.122 83.0312 276.093 83.4029 277.083 83.7166C279.763 84.5755 282.56 85.0161 285.375 85.0228C289.673 85.0228 292.848 84.0567 294.899 82.1243C296.95 80.192 297.983 77.2627 297.999 73.3362V71.5508C294.76 75.101 290.242 76.8762 284.445 76.8762C280.688 76.9194 276.979 76.0324 273.65 74.2946C270.445 72.6234 267.764 70.1043 265.9 67.0137C263.945 63.7462 262.949 59.997 263.025 56.1928C262.95 52.3886 263.946 48.6397 265.9 45.3718C267.766 42.2851 270.447 39.7691 273.65 38.0986C276.982 36.3742 280.691 35.5005 284.445 35.5557C290.645 35.5557 295.377 37.5962 298.642 41.6773C298.641 40.957 298.783 40.2435 299.058 39.5778C299.334 38.912 299.738 38.307 300.249 37.7973C300.759 37.2876 301.365 36.8833 302.032 36.6074C302.699 36.3315 303.415 36.1895 304.137 36.1895L305.377 36.1663ZM295.008 63.7983C296.05 62.8325 296.871 61.6538 297.416 60.3426C297.96 59.0315 298.215 57.6186 298.162 56.2005C298.214 54.7835 297.96 53.3719 297.416 52.062C296.871 50.7521 296.05 49.5747 295.008 48.6104C292.792 46.629 289.89 45.5865 286.917 45.7042C283.934 45.5958 281.023 46.6364 278.788 48.6104C277.737 49.5697 276.908 50.7453 276.358 52.0559C275.808 53.3665 275.55 54.7807 275.602 56.2005C275.55 57.6214 275.808 59.0368 276.358 60.3487C276.907 61.6605 277.737 62.8376 278.788 63.7983C281.024 65.7695 283.935 66.8073 286.917 66.6968C289.889 66.8166 292.791 65.777 295.008 63.7983V63.7983Z" fill="#000D1F"/>
<path d="M365.684 24.8739V74.0164C365.682 75.3229 365.161 76.5752 364.234 77.4983C363.307 78.4214 362.05 78.9399 360.74 78.9399H358.748C357.439 78.9399 356.182 78.4214 355.255 77.4983C354.328 76.5752 353.806 75.3229 353.804 74.0164V74.0164C350.704 77.7264 346.241 79.5814 340.413 79.5814C336.585 79.6328 332.809 78.7012 329.447 76.8762C326.197 75.0855 323.529 72.4032 321.759 69.147C319.845 65.5859 318.885 61.5927 318.97 57.5531C318.886 53.5137 319.846 49.5207 321.759 45.9593C323.531 42.7046 326.198 40.0228 329.447 38.23C332.812 36.4158 336.588 35.4949 340.413 35.5557C342.592 35.5265 344.762 35.8502 346.837 36.5141C347.578 36.7504 348.365 36.8078 349.133 36.6815C349.9 36.5552 350.627 36.2489 351.253 35.7878C351.879 35.3267 352.386 34.724 352.732 34.0292C353.079 33.3344 353.255 32.5675 353.246 31.7916V24.8353C353.246 23.5274 353.767 22.2731 354.694 21.3484C355.622 20.4236 356.879 19.904 358.191 19.904H360.74C361.393 19.904 362.039 20.0328 362.641 20.2831C363.244 20.5333 363.79 20.9 364.25 21.362C364.71 21.824 365.073 22.3722 365.319 22.9749C365.565 23.5777 365.69 24.2231 365.684 24.8739V24.8739ZM350.379 66.1789C352.445 64.0354 353.479 61.1601 353.479 57.5531C353.479 53.9461 352.445 51.0709 350.379 48.9273C348.289 46.8623 345.466 45.7038 342.525 45.7038C339.583 45.7038 336.76 46.8623 334.67 48.9273C332.604 51.076 331.57 53.9513 331.57 57.5531C331.57 61.1549 332.604 64.0302 334.67 66.1789C336.76 68.2439 339.583 69.4024 342.525 69.4024C345.466 69.4024 348.289 68.2439 350.379 66.1789Z" fill="#000D1F"/>
<path d="M381.145 78.2675C379.835 77.9274 378.619 77.5564 377.51 77.1545C376.915 76.928 376.373 76.5819 375.917 76.1376C375.461 75.6934 375.102 75.1604 374.861 74.5719C374.621 73.9834 374.504 73.3518 374.519 72.7164C374.533 72.081 374.678 71.4554 374.945 70.8783L375.185 70.3605C375.683 69.3051 376.565 68.4781 377.651 68.0474C378.738 67.6168 379.948 67.6147 381.036 68.0417C382.05 68.4445 383.085 68.7928 384.136 69.0851C386.728 69.8344 389.412 70.222 392.111 70.2368C397.37 70.2368 400 68.9486 400 66.3722C400 65.151 399.287 64.2776 397.845 63.7442C395.693 63.0381 393.472 62.5614 391.219 62.3221C388.282 61.9174 385.376 61.3079 382.524 60.498C380.258 59.8201 378.211 58.5592 376.588 56.842C374.914 55.0849 374.077 52.5935 374.077 49.3679C374.034 46.7789 374.851 44.2485 376.402 42.172C378.18 39.9285 380.558 38.2323 383.261 37.2793C386.67 36.0521 390.278 35.4676 393.901 35.5557C396.945 35.5587 399.98 35.8904 402.952 36.5451C403.867 36.746 404.743 36.9779 405.564 37.2252C406.194 37.4235 406.774 37.7534 407.266 38.1928C407.758 38.6323 408.151 39.1712 408.418 39.7738C408.685 40.3764 408.82 41.0288 408.814 41.6875C408.809 42.3462 408.662 42.9962 408.385 43.5941L408.199 43.996C407.693 45.0385 406.815 45.8545 405.736 46.2836C404.658 46.7127 403.458 46.7238 402.371 46.3148C399.648 45.3692 396.784 44.8935 393.901 44.9081C391.24 44.9081 389.249 45.2791 387.926 46.0211C386.593 46.794 385.934 47.7138 385.934 48.8809C385.928 49.5174 386.137 50.1375 386.526 50.6419C386.915 51.1464 387.463 51.5061 388.081 51.6634C390.313 52.3918 392.61 52.9093 394.939 53.2093C397.844 53.6608 400.719 54.2854 403.549 55.0798C405.779 55.7441 407.789 56.9933 409.369 58.6971C411.017 60.4542 411.841 62.894 411.841 66.0166C411.872 68.5769 411.027 71.0712 409.447 73.0889C407.627 75.3211 405.208 76.9911 402.472 77.9042C398.986 79.1103 395.312 79.6887 391.622 79.6124C388.087 79.6081 384.566 79.1562 381.145 78.2675V78.2675Z" fill="#000D1F"/>
<path d="M463.183 24.8739V74.0164C463.181 75.3229 462.659 76.5752 461.732 77.4983C460.805 78.4214 459.548 78.9399 458.238 78.9399H455.821C455.227 78.9399 454.64 78.8233 454.092 78.5969C453.543 78.3704 453.045 78.0385 452.626 77.6201C452.206 77.2016 451.873 76.7049 451.646 76.1582C451.419 75.6115 451.303 75.0255 451.303 74.4337V74.4337C451.304 74.4006 451.295 74.3678 451.277 74.3402C451.258 74.3126 451.232 74.2916 451.2 74.2803C451.169 74.2691 451.135 74.2681 451.103 74.2777C451.071 74.2872 451.043 74.3067 451.024 74.3333C447.955 77.8372 443.584 79.5866 437.911 79.5814C434.084 79.6328 430.307 78.7012 426.945 76.8762C423.695 75.0855 421.027 72.4032 419.258 69.1469C417.34 65.5872 416.379 61.5931 416.468 57.5531C416.38 53.5132 417.341 49.5193 419.258 45.9593C421.029 42.7046 423.696 40.0228 426.945 38.23C430.31 36.4158 434.086 35.4949 437.911 35.5557C440.088 35.526 442.255 35.8497 444.328 36.5141C445.067 36.7495 445.852 36.807 446.619 36.6819C447.385 36.5568 448.11 36.2526 448.736 35.7943C449.362 35.336 449.87 34.7366 450.219 34.0449C450.568 33.3533 450.748 32.5891 450.745 31.8148V24.8584C450.745 23.5506 451.265 22.2963 452.193 21.3715C453.12 20.4467 454.378 19.9272 455.689 19.9272H458.238C458.889 19.9272 459.533 20.0553 460.134 20.304C460.735 20.5528 461.281 20.9174 461.74 21.377C462.199 21.8365 462.563 22.382 462.811 22.9821C463.058 23.5821 463.185 24.225 463.183 24.8739V24.8739ZM447.877 66.1789C449.944 64.0354 450.977 61.1601 450.977 57.5531C450.977 53.9461 449.944 51.0709 447.877 48.9273C445.787 46.8623 442.965 45.7038 440.023 45.7038C437.081 45.7038 434.258 46.8623 432.169 48.9273C430.102 51.076 429.069 53.9513 429.069 57.5531C429.069 61.1549 430.102 64.0302 432.169 66.1789C434.258 68.2439 437.081 69.4024 440.023 69.4024C442.965 69.4024 445.787 68.2439 447.877 66.1789V66.1789Z" fill="#000D1F"/>
</svg>
