<svg width="100" height="100" viewBox="0 0 100 100" fill="none" xmlns="http://www.w3.org/2000/svg">
<path fill-rule="evenodd" clip-rule="evenodd" d="M59.2732 31.7817C53.1582 31.0983 46.8418 31.0983 40.7267 31.7817C36.1216 32.2964 32.3896 35.921 31.8444 40.5832C31.1126 46.8398 31.1126 53.1603 31.8444 59.4168C32.3896 64.079 36.1216 67.7036 40.7267 68.2183C46.8418 68.9018 53.1582 68.9018 59.2732 68.2183C63.8784 67.7036 67.6103 64.079 68.1556 59.4168C68.8873 53.1603 68.8873 46.8398 68.1556 40.5832C67.6103 35.921 63.8784 32.2964 59.2732 31.7817ZM41.5811 39.4264C47.1283 38.8064 52.8716 38.8064 58.4188 39.4264C59.5268 39.5503 60.3928 40.4293 60.5154 41.4768C61.1777 47.1396 61.1777 52.8604 60.5154 58.5232C60.3928 59.5708 59.5268 60.4498 58.4188 60.5736C52.8716 61.1936 47.1283 61.1936 41.5811 60.5736C40.4732 60.4498 39.6071 59.5708 39.4846 58.5232C38.8223 52.8604 38.8223 47.1397 39.4846 41.4768C39.6071 40.4293 40.4732 39.5503 41.5811 39.4264Z" fill="#0077FF"/>
<path fill-rule="evenodd" clip-rule="evenodd" d="M69.2308 3.84615C69.2308 1.72198 67.5088 0 65.3846 0C63.2605 0 61.5385 1.72198 61.5385 3.84615V16.7878C58.9832 16.6083 56.4166 16.4887 53.8462 16.429V8.97436C53.8462 6.85019 52.1242 5.1282 50 5.1282C47.8758 5.12821 46.1538 6.85019 46.1538 8.97436V16.429C43.5834 16.4887 41.0168 16.6083 38.4615 16.7878V3.84615C38.4615 1.72198 36.7396 0 34.6154 0C32.4912 0 30.7692 1.72198 30.7692 3.84615V17.5489C24.1029 18.7631 18.7821 24.0303 17.6303 30.7692H3.84615C1.72198 30.7692 0 32.4912 0 34.6154C0 36.7396 1.72198 38.4615 3.84615 38.4615H16.8584C16.6712 41.023 16.5464 43.5878 16.4841 46.1538H8.97436C6.85019 46.1538 5.12821 47.8758 5.1282 50C5.1282 52.1242 6.85019 53.8462 8.97436 53.8462H16.4841C16.5464 56.4122 16.6712 58.977 16.8585 61.5385H3.84615C1.72198 61.5385 0 63.2605 0 65.3846C0 67.5088 1.72198 69.2308 3.84615 69.2308H17.6303C18.7821 75.9697 24.1029 81.2369 30.7692 82.4511V96.1538C30.7692 98.278 32.4912 100 34.6154 100C36.7396 100 38.4615 98.278 38.4615 96.1538V83.2122C41.0168 83.3917 43.5834 83.5112 46.1538 83.5709V91.0256C46.1538 93.1498 47.8758 94.8718 50 94.8718C52.1242 94.8718 53.8462 93.1498 53.8462 91.0256V83.5709C56.4166 83.5112 58.9832 83.3917 61.5385 83.2122V96.1538C61.5385 98.278 63.2605 100 65.3846 100C67.5088 100 69.2308 98.278 69.2308 96.1538V82.4511C75.8971 81.2369 81.2179 75.9697 82.3697 69.2308H96.1538C98.278 69.2308 100 67.5088 100 65.3846C100 63.2605 98.278 61.5385 96.1538 61.5385H83.1416C83.3288 58.977 83.4536 56.4122 83.516 53.8462H91.0256C93.1498 53.8462 94.8718 52.1242 94.8718 50C94.8718 47.8758 93.1498 46.1538 91.0256 46.1538H83.516C83.4536 43.5878 83.3288 41.023 83.1416 38.4615H96.1538C98.278 38.4615 100 36.7396 100 34.6154C100 32.4912 98.278 30.7692 96.1538 30.7692H82.3698C81.218 24.0303 75.8971 18.763 69.2308 17.5489V3.84615ZM32.7351 25.0305C44.1135 23.7588 55.8866 23.7588 67.2649 25.0305C71.2294 25.4736 74.3945 28.6044 74.8509 32.5068C76.2102 44.1293 76.2102 55.8707 74.8509 67.4932C74.3945 71.3956 71.2294 74.5264 67.2649 74.9695C55.8866 76.2412 44.1135 76.2412 32.7351 74.9695C28.7706 74.5264 25.6056 71.3956 25.1491 67.4932C23.7898 55.8707 23.7898 44.1293 25.1491 32.5068C25.6056 28.6044 28.7706 25.4736 32.7351 25.0305Z" fill="#0077FF"/>
</svg>
